<?xml version="1.0"?>
<svg version="1.1" xmlns="http://www.w3.org/2000/svg" width="400" height="50" style=""><path fill="#e94949" d="M16.04248046875,39.2529296875q0-0.59814453125,0.41015625-0.760498046875t0.888671875-0.162353515625q0.83740234375,0,1.41845703125,0.751953125t1.102294921875,1.649169921875t1.033935546875,1.649169921875t1.21337890625,0.751953125q0.52978515625,0,0.965576171875-0.264892578125t0.751953125-0.66650390625t0.487060546875-0.90576171875t0.1708984375-0.999755859375q0-1.298828125-0.521240234375-2.68310546875t-1.3330078125-2.85400390625t-1.717529296875-3.0078125t-1.708984375-3.12744140625t-1.3330078125-3.238525390625t-0.52978515625-3.323974609375q0-2.51220703125,1.50390625-3.896484375t3.96484375-1.38427734375q0.83740234375,0,1.69189453125,0.2392578125t1.572265625,0.7177734375t1.170654296875,1.17919921875t0.452880859375,1.640625q0,0.3076171875-0.452880859375,0.401611328125t-0.657958984375,0.093994140625q-0.3076171875,0-0.66650390625-0.076904296875t-0.46142578125-0.418701171875t-0.29052734375-0.7861328125t-0.469970703125-0.828857421875t-0.66650390625-0.66650390625t-0.845947265625-0.281982421875q-0.76904296875,0-1.307373046875,0.316162109375t-0.87158203125,0.845947265625t-0.49560546875,1.187744140625t-0.162353515625,1.358642578125q0,1.640625,0.56396484375,3.306884765625t1.4013671875,3.3154296875t1.820068359375,3.255615234375t1.820068359375,3.12744140625t1.4013671875,2.9736328125t0.56396484375,2.75146484375q0,1.162109375-0.546875,1.96533203125t-1.38427734375,1.307373046875t-1.854248046875,0.73486328125t-1.990966796875,0.230712890625q-1.04248046875,0-2.13623046875-0.418701171875t-1.96533203125-1.153564453125t-1.435546875-1.717529296875t-0.56396484375-2.127685546875z M31.417700195312,35.71533203125q0-1.572265625,0.367431640625-3.084716796875t0.623779296875-3.016357421875q0.068359375-0.39306640625,0.538330078125-0.487060546875t0.794677734375-0.093994140625q0.56396484375,0,0.90576171875,0.1708984375q0.13671875,0.068359375,0.25634765625,0.15380859375t0.11962890625,0.22216796875q0,1.4697265625-0.350341796875,2.87109375t-0.350341796875,2.9736328125q0,0.52978515625,0.076904296875,0.999755859375t0.145263671875,0.931396484375l0.1025390625,0.49560546875q0,0.13671875,0.01708984375,0.2392578125t0.05126953125,0.2392578125q0,0.3076171875-0.435791015625,0.418701171875t-0.760498046875,0.111083984375q-0.49560546875,0-0.914306640625-0.196533203125t-0.657958984375-0.675048828125l-0.2392578125-0.49560546875q-0.205078125-0.39306640625-0.205078125-0.880126953125t-0.08544921875-0.897216796875z M32.511450195312,25.42724609375l0-0.32470703125q0-0.80322265625,0.401611328125-1.435546875t1.204833984375-0.63232421875q0.1025390625,0,0.196533203125,0.01708984375t0.196533203125,0.01708984375q0.205078125,0.0341796875,0.538330078125,0.162353515625t0.333251953125,0.401611328125l0,0.0341796875q-0.068359375,0.13671875-0.08544921875,0.281982421875t-0.08544921875,0.247802734375l0.0341796875-0.0341796875q-0.205078125,0.52978515625-0.333251953125,0.8544921875t-0.281982421875,0.521240234375t-0.384521484375,0.281982421875t-0.657958984375,0.08544921875q-0.068359375,0-0.2392578125-0.01708984375t-0.367431640625-0.068359375t-0.333251953125-0.13671875t-0.13671875-0.25634765625z M38.923046875,31.844482421875q-0.042724609375-0.572509765625,0.068359375-1.051025390625t0.4443359375-0.777587890625t1.068115234375-0.299072265625q0.1708984375,0,0.418701171875,0.042724609375t0.487060546875,0.111083984375t0.401611328125,0.205078125t0.162353515625,0.3759765625l0,1.93115234375q0.66650390625-0.76904296875,1.45263671875-1.102294921875t1.79443359375-0.333251953125q0.76904296875,0,1.52099609375,0.350341796875t1.41845703125,0.931396484375t1.153564453125,1.28173828125t0.709228515625,1.4013671875q0.13671875-0.63232421875,0.3076171875-1.546630859375t0.504150390625-1.751708984375t0.880126953125-1.435546875t1.45263671875-0.59814453125q0.97412109375,0,1.640625,0.70068359375t1.085205078125,1.820068359375t0.63232421875,2.503662109375t0.316162109375,2.734375t0.1025390625,2.520751953125l0,1.837158203125q0,0.205078125-0.15380859375,0.333251953125t-0.384521484375,0.196533203125t-0.478515625,0.08544921875t-0.384521484375,0.01708984375q-0.52978515625,0-0.965576171875-0.162353515625t-0.435791015625-0.828857421875l0-1.5380859375t-0.0341796875-1.990966796875t-0.11962890625-2.13623046875t-0.22216796875-1.939697265625t-0.350341796875-1.4013671875t-0.521240234375-0.546875q-0.42724609375,0-0.615234375,0.478515625t-0.316162109375,1.21337890625t-0.196533203125,1.55517578125t-0.18798828125,1.55517578125t-0.384521484375,1.204833984375t-0.726318359375,0.469970703125q-0.49560546875,0-0.87158203125-0.469970703125t-0.743408203125-1.170654296875t-0.73486328125-1.50390625t-0.811767578125-1.50390625q-0.4443359375-0.7177734375-0.95703125-1.162109375q-0.46142578125-0.42724609375-1.04248046875-0.41015625l-0.08544921875,0q-0.76904296875,0.0341796875-1.204833984375,0.555419921875t-0.66650390625,1.273193359375t-0.281982421875,1.614990234375t-0.05126953125,1.512451171875q0,0.615234375,0.1025390625,1.435546875q0.068359375,0.546875,0.068359375,1.04248046875q0,0.25634765625-0.01708984375,0.49560546875q-0.05126953125,0.7177734375-0.384521484375,1.204833984375t-1.239013671875,0.487060546875q-0.341796875,0-0.8544921875-0.068359375t-0.68359375-0.46142578125q-0.39306640625-0.70068359375-0.59814453125-1.768798828125t-0.3076171875-2.20458984375t-0.11962890625-2.255859375t-0.01708984375-1.922607421875q0-0.56396484375-0.042724609375-1.136474609375z M60.476245117188,31.34033203125q0-0.70068359375,0.247802734375-1.17919921875t1.051025390625-0.478515625q0.3076171875,0,0.76904296875,0.093994140625t0.52978515625,0.469970703125q0.1708984375,1.00830078125,0.18798828125,2.1875t0.11962890625,2.2216796875q0.39306640625-0.76904296875,1.00830078125-1.65771484375t1.4013671875-1.640625t1.708984375-1.24755859375t1.8798828125-0.49560546875q0.068359375,0,0.25634765625,0.05126953125t0.350341796875,0.145263671875t0.196533203125,0.213623046875t-0.18798828125,0.22216796875q-0.068359375,0.205078125-0.29052734375,0.247802734375t-0.39306640625,0.042724609375q-0.1025390625,0-0.32470703125-0.08544921875q-1.2646484375,0.66650390625-2.1533203125,1.8115234375t-1.45263671875,2.537841796875t-0.8203125,2.939453125t-0.25634765625,3.016357421875q0,0.73486328125-0.333251953125,0.888671875t-1.068115234375,0.15380859375q-0.39306640625,0-0.828857421875-0.08544921875t-0.606689453125-0.546875q-0.3076171875-0.97412109375-0.504150390625-2.23876953125t-0.299072265625-2.606201171875t-0.145263671875-2.640380859375t-0.042724609375-2.34130859375z M72.621484375,36.12548828125q0-1.162109375,0.316162109375-2.23876953125t0.948486328125-1.922607421875t1.580810546875-1.35009765625t2.196044921875-0.504150390625q0.76904296875,0,1.700439453125,0.230712890625t1.751708984375,0.68359375t1.3671875,1.153564453125t0.546875,1.6064453125q0,0.42724609375-0.145263671875,0.6494140625t-0.589599609375,0.22216796875l-0.18798828125-0.0341796875q0.49560546875,1.3330078125,0.8544921875,2.734375t0.70068359375,2.802734375q0.13671875,0.2734375,0.205078125,0.487060546875t0.068359375,0.418701171875q0,0.2734375-0.15380859375,0.452880859375t-0.401611328125,0.264892578125t-0.5126953125,0.11962890625t-0.469970703125,0.0341796875q-0.73486328125,0-1.102294921875-0.25634765625t-0.52978515625-0.70068359375t-0.196533203125-0.999755859375t-0.13671875-1.119384765625q-0.205078125,0.66650390625-0.538330078125,1.298828125t-0.7861328125,1.136474609375t-1.068115234375,0.80322265625t-1.38427734375,0.299072265625q-1.1279296875,0-1.89697265625-0.6494140625t-1.239013671875-1.597900390625t-0.68359375-2.025146484375t-0.213623046875-1.99951171875z M75.0482421875,35.88623046875q0,0.63232421875,0.08544921875,1.3330078125t0.281982421875,1.38427734375t0.504150390625,1.290283203125t0.76904296875,1.068115234375q0.83740234375-0.90576171875,1.239013671875-2.20458984375t0.7177734375-2.503662109375t0.7177734375-2.06787109375t1.239013671875-0.863037109375q0.52978515625,0,0.888671875,0.18798828125q-0.1708984375-0.42724609375-0.56396484375-0.828857421875t-0.880126953125-0.73486328125t-1.00830078125-0.546875t-0.982666015625-0.213623046875q-0.13671875,0-0.316162109375,0.042724609375t-0.281982421875,0.008544921875q-0.70068359375,0.205078125-1.153564453125,0.709228515625t-0.73486328125,1.187744140625t-0.401611328125,1.4013671875t-0.11962890625,1.35009765625z M87.449829101562,36.2109375l0-0.49560546875q0-0.615234375,0.0341796875-1.162109375q0.0341796875-0.76904296875,0.0341796875-1.2646484375q0-0.2734375,0.0341796875-0.623779296875t0.1708984375-0.555419921875q0.1708984375-0.1708984375,0.401611328125-0.350341796875t0.504150390625-0.179443359375q0.87158203125,0,1.3671875,0.196533203125t0.52978515625,0.811767578125l0.068359375,0.52978515625q0.3076171875-0.73486328125,0.8203125-1.820068359375t1.187744140625-2.06787109375t1.52099609375-1.6748046875t1.785888671875-0.692138671875q0.87158203125,0,1.435546875,0.8203125t0.897216796875,2.093505859375t0.469970703125,2.8369140625t0.18798828125,3.067626953125t0.068359375,2.742919921875t0.11962890625,1.871337890625q0.068359375,0.52978515625,0.230712890625,1.119384765625t0.162353515625,1.085205078125q0,0.13671875-0.196533203125,0.264892578125t-0.418701171875,0.213623046875t-0.452880859375,0.13671875t-0.333251953125,0.05126953125q-0.66650390625,0-0.948486328125-0.999755859375t-0.350341796875-2.503662109375t-0.068359375-3.255615234375t-0.11962890625-3.255615234375t-0.487060546875-2.503662109375t-1.170654296875-1.033935546875q-0.73486328125,0-1.52099609375,0.948486328125t-1.35009765625,2.520751953125q-0.546875,1.572265625-0.751953125,3.57177734375q-0.068359375,0.63232421875-0.068359375,1.2646484375q0,1.38427734375,0.29052734375,2.7685546875q0.0341796875,0.2392578125-0.196533203125,0.35888671875t-0.572509765625,0.18798828125t-0.692138671875,0.08544921875t-0.538330078125,0.01708984375q-0.66650390625,0-1.068115234375-0.469970703125t-0.623779296875-1.204833984375t-0.299072265625-1.649169921875t-0.093994140625-1.802978515625z M109.63825683594,39.2529296875q0-0.59814453125,0.41015625-0.760498046875t0.888671875-0.162353515625q0.83740234375,0,1.41845703125,0.751953125t1.102294921875,1.649169921875t1.033935546875,1.649169921875t1.21337890625,0.751953125q0.52978515625,0,0.965576171875-0.264892578125t0.751953125-0.66650390625t0.487060546875-0.90576171875t0.1708984375-0.999755859375q0-1.298828125-0.521240234375-2.68310546875t-1.3330078125-2.85400390625t-1.717529296875-3.0078125t-1.708984375-3.12744140625t-1.3330078125-3.238525390625t-0.52978515625-3.323974609375q0-2.51220703125,1.50390625-3.896484375t3.96484375-1.38427734375q0.83740234375,0,1.69189453125,0.2392578125t1.572265625,0.7177734375t1.170654296875,1.17919921875t0.452880859375,1.640625q0,0.3076171875-0.452880859375,0.401611328125t-0.657958984375,0.093994140625q-0.3076171875,0-0.66650390625-0.076904296875t-0.46142578125-0.418701171875t-0.29052734375-0.7861328125t-0.469970703125-0.828857421875t-0.66650390625-0.66650390625t-0.845947265625-0.281982421875q-0.76904296875,0-1.307373046875,0.316162109375t-0.87158203125,0.845947265625t-0.49560546875,1.187744140625t-0.162353515625,1.358642578125q0,1.640625,0.56396484375,3.306884765625t1.4013671875,3.3154296875t1.820068359375,3.255615234375t1.820068359375,3.12744140625t1.4013671875,2.9736328125t0.56396484375,2.75146484375q0,1.162109375-0.546875,1.96533203125t-1.38427734375,1.307373046875t-1.854248046875,0.73486328125t-1.990966796875,0.230712890625q-1.04248046875,0-2.13623046875-0.418701171875t-1.96533203125-1.153564453125t-1.435546875-1.717529296875t-0.56396484375-2.127685546875z M124.6716796875,36.4501953125q0-0.97412109375,0.247802734375-2.008056640625t0.7861328125-1.86279296875t1.358642578125-1.35009765625t1.982421875-0.521240234375q0.87158203125,0,1.837158203125,0.299072265625t1.768798828125,0.8544921875t1.307373046875,1.358642578125t0.504150390625,1.79443359375q0,1.1962890625-0.435791015625,2.27294921875t-1.221923828125,1.922607421875t-1.837158203125,1.3330078125t-2.281494140625,0.487060546875q-1.00830078125,0-1.76025390625-0.367431640625t-1.256103515625-0.982666015625t-0.751953125-1.45263671875t-0.247802734375-1.77734375z M127.18388671875,36.416015625q0,0.3076171875,0.093994140625,0.90576171875t0.281982421875,1.170654296875t0.487060546875,0.9912109375t0.726318359375,0.384521484375q0.90576171875-0.1025390625,1.495361328125-0.589599609375t0.95703125-1.187744140625t0.5126953125-1.52099609375t0.145263671875-1.55517578125q0-0.93994140625-0.367431640625-1.572265625t-1.204833984375-1.025390625q0,0.0341796875,0.0341796875,0.0341796875t0.0341796875-0.0341796875l-0.42724609375-0.1025390625q-0.1708984375-0.068359375-0.418701171875-0.15380859375t-0.487060546875-0.3759765625q-0.66650390625,0.2392578125-1.033935546875,0.615234375t-0.555419921875,0.914306640625t-0.230712890625,1.290283203125t-0.042724609375,1.8115234375z M136.91945800781,25.2734375q0-0.2392578125,0.5126953125-0.41015625t1.162109375-0.281982421875t1.256103515625-0.162353515625t0.828857421875-0.08544921875q0-0.46142578125,0.0341796875-0.931396484375t0.18798828125-0.83740234375t0.487060546875-0.589599609375t0.931396484375-0.22216796875q0.49560546875,0,0.751953125,0.11962890625t0.546875,0.49560546875q0.068359375,0.205078125,0.068359375,0.39306640625l0,0.572509765625t-0.0341796875,0.589599609375q0.63232421875-0.068359375,1.256103515625-0.162353515625t1.256103515625-0.093994140625q0.46142578125,0,0.63232421875,0.01708984375t0.341796875,0.41015625q0.13671875,0.39306640625-0.333251953125,0.59814453125t-1.1279296875,0.3076171875t-1.307373046875,0.15380859375t-0.7861328125,0.05126953125q-0.205078125,2.939453125-0.418701171875,5.82763671875t-0.213623046875,5.86181640625q0,1.3330078125,0.08544921875,2.75146484375t0.478515625,2.68310546875q0.1025390625,0.39306640625,0.341796875,0.73486328125t0.2392578125,0.73486328125q0,0.2392578125-0.18798828125,0.3759765625t-0.452880859375,0.230712890625t-0.52978515625,0.111083984375t-0.435791015625,0.01708984375q-1.07666015625,0-1.640625-0.80322265625t-0.811767578125-1.922607421875t-0.264892578125-2.298583984375t-0.01708984375-1.9140625q0-1.50390625,0.059814453125-3.076171875t0.145263671875-3.1103515625t0.2392578125-3.0078125t0.35888671875-2.734375q-0.59814453125,0.068359375-1.170654296875,0.15380859375t-1.170654296875,0.08544921875q-0.13671875,0-0.367431640625-0.01708984375t-0.435791015625-0.08544921875t-0.350341796875-0.18798828125t-0.145263671875-0.341796875z M149.98754882813,36.12548828125q0-1.162109375,0.316162109375-2.23876953125t0.948486328125-1.922607421875t1.580810546875-1.35009765625t2.196044921875-0.504150390625q0.76904296875,0,1.700439453125,0.230712890625t1.751708984375,0.68359375t1.3671875,1.153564453125t0.546875,1.6064453125q0,0.42724609375-0.145263671875,0.6494140625t-0.589599609375,0.22216796875l-0.18798828125-0.0341796875q0.49560546875,1.3330078125,0.8544921875,2.734375t0.70068359375,2.802734375q0.13671875,0.2734375,0.205078125,0.487060546875t0.068359375,0.418701171875q0,0.2734375-0.15380859375,0.452880859375t-0.401611328125,0.264892578125t-0.5126953125,0.11962890625t-0.469970703125,0.0341796875q-0.73486328125,0-1.102294921875-0.25634765625t-0.52978515625-0.70068359375t-0.196533203125-0.999755859375t-0.13671875-1.119384765625q-0.205078125,0.66650390625-0.538330078125,1.298828125t-0.7861328125,1.136474609375t-1.068115234375,0.80322265625t-1.38427734375,0.299072265625q-1.1279296875,0-1.89697265625-0.6494140625t-1.239013671875-1.597900390625t-0.68359375-2.025146484375t-0.213623046875-1.99951171875z M152.41430664063,35.88623046875q0,0.63232421875,0.08544921875,1.3330078125t0.281982421875,1.38427734375t0.504150390625,1.290283203125t0.76904296875,1.068115234375q0.83740234375-0.90576171875,1.239013671875-2.20458984375t0.7177734375-2.503662109375t0.7177734375-2.06787109375t1.239013671875-0.863037109375q0.52978515625,0,0.888671875,0.18798828125q-0.1708984375-0.42724609375-0.56396484375-0.828857421875t-0.880126953125-0.73486328125t-1.00830078125-0.546875t-0.982666015625-0.213623046875q-0.13671875,0-0.316162109375,0.042724609375t-0.281982421875,0.008544921875q-0.70068359375,0.205078125-1.153564453125,0.709228515625t-0.73486328125,1.187744140625t-0.401611328125,1.4013671875t-0.11962890625,1.35009765625z"/><path fill="#" d=""/></svg>
